<svg width="1200" height="1380" viewBox="0 0 1200 1380" fill="none" xmlns="http://www.w3.org/2000/svg">
  <rect width="1200" height="1380" fill="#020617"/>
  <rect width="1200" height="1380" fill="url(#bgGlow)"/>
  <rect x="58" y="52" width="1084" height="1276" rx="54" fill="url(#frameGlow)" fill-opacity="0.22" stroke="url(#frameStroke)" stroke-width="2"/>
  <rect x="114" y="108" width="972" height="1164" rx="42" fill="url(#scene)" stroke="rgba(255,255,255,0.08)"/>

  <g opacity="0.9">
    <ellipse cx="602" cy="238" rx="312" ry="210" fill="url(#spotlight)"/>
    <circle cx="874" cy="218" r="126" fill="#EF4444" fill-opacity="0.18"/>
    <circle cx="304" cy="1018" r="162" fill="#FACC15" fill-opacity="0.08"/>
  </g>

  <g opacity="0.75">
    <path d="M260 1110C296 954 422 860 560 862H782C686 930 650 1010 648 1122L260 1110Z" fill="#081126"/>
    <path d="M854 386C830 552 746 666 626 744C716 676 760 594 766 460V386H854Z" fill="#111827"/>
  </g>

  <g>
    <rect x="228" y="690" width="744" height="42" rx="21" fill="#D1D5DB" fill-opacity="0.22"/>
    <rect x="192" y="732" width="816" height="72" rx="26" fill="#020B1D"/>
    <rect x="204" y="742" width="792" height="50" rx="18" fill="url(#rope)"/>
    <rect x="306" y="820" width="588" height="26" rx="13" fill="#091122"/>
  </g>

  <g>
    <path d="M448 610L386 740" stroke="#A8AFBE" stroke-width="34" stroke-linecap="round"/>
    <path d="M754 610L820 742" stroke="#A8AFBE" stroke-width="34" stroke-linecap="round"/>
    <path d="M526 1030L470 1180" stroke="#6B7280" stroke-width="40" stroke-linecap="round"/>
    <path d="M684 1030L748 1180" stroke="#6B7280" stroke-width="40" stroke-linecap="round"/>
  </g>

  <g>
    <path d="M602 312C662 312 712 360 712 422V554H492V422C492 360 542 312 602 312Z" fill="#0F172A"/>
    <circle cx="602" cy="250" r="94" fill="#1E293B"/>
    <path d="M472 574H732L786 980H416L472 574Z" fill="url(#giOuter)"/>
    <path d="M548 574H656L678 980H526L548 574Z" fill="url(#giCenter)"/>
    <path d="M446 580H758L760 622C760 647 740 668 715 668H489C464 668 444 647 444 622L446 580Z" fill="#050B19"/>
    <path d="M454 980H750L724 1136H480L454 980Z" fill="url(#pants)"/>
  </g>

  <g opacity="0.95">
    <circle cx="486" cy="560" r="28" fill="#111827"/>
    <circle cx="720" cy="560" r="28" fill="#111827"/>
  </g>

  <g>
    <rect x="164" y="152" width="324" height="48" rx="24" fill="#0F172A" fill-opacity="0.86" stroke="#EF4444" stroke-opacity="0.32"/>
    <text x="192" y="183" fill="#F8FAFC" font-family="Manrope, Arial, sans-serif" font-size="24" font-weight="800" letter-spacing="0.14em">KING PANTHER ACADEMY</text>
    <text x="164" y="270" fill="#F8FAFC" font-family="Manrope, Arial, sans-serif" font-size="78" font-weight="800">Elite Training.</text>
    <text x="164" y="346" fill="#F8FAFC" font-family="Manrope, Arial, sans-serif" font-size="78" font-weight="800">Real Discipline.</text>
    <text x="164" y="404" fill="#FCA5A5" font-family="Manrope, Arial, sans-serif" font-size="28" font-weight="700">Fight conditioning, self-defense, and focused coaching.</text>
  </g>

  <defs>
    <radialGradient id="bgGlow" cx="0" cy="0" r="1" gradientUnits="userSpaceOnUse" gradientTransform="translate(600 0) rotate(90) scale(1380 1020)">
      <stop stop-color="#7F1D1D"/>
      <stop offset="0.48" stop-color="#310A1A"/>
      <stop offset="1" stop-color="#020617"/>
    </radialGradient>
    <linearGradient id="frameGlow" x1="600" y1="52" x2="600" y2="1328" gradientUnits="userSpaceOnUse">
      <stop stop-color="#EF4444"/>
      <stop offset="1" stop-color="#020617"/>
    </linearGradient>
    <linearGradient id="frameStroke" x1="58" y1="52" x2="1142" y2="1328" gradientUnits="userSpaceOnUse">
      <stop stop-color="#F87171"/>
      <stop offset="0.55" stop-color="#312E81" stop-opacity="0.18"/>
      <stop offset="1" stop-color="#FACC15" stop-opacity="0.22"/>
    </linearGradient>
    <linearGradient id="scene" x1="600" y1="108" x2="600" y2="1272" gradientUnits="userSpaceOnUse">
      <stop stop-color="#12203D"/>
      <stop offset="0.62" stop-color="#04112A"/>
      <stop offset="1" stop-color="#020617"/>
    </linearGradient>
    <radialGradient id="spotlight" cx="0" cy="0" r="1" gradientUnits="userSpaceOnUse" gradientTransform="translate(600 214) rotate(90) scale(244 348)">
      <stop stop-color="#FFFFFF" stop-opacity="0.14"/>
      <stop offset="1" stop-color="#FFFFFF" stop-opacity="0"/>
    </radialGradient>
    <linearGradient id="rope" x1="192" y1="767" x2="1008" y2="767" gradientUnits="userSpaceOnUse">
      <stop stop-color="#020617"/>
      <stop offset="0.48" stop-color="#0B1429"/>
      <stop offset="1" stop-color="#020617"/>
    </linearGradient>
    <linearGradient id="giOuter" x1="416" y1="574" x2="786" y2="980" gradientUnits="userSpaceOnUse">
      <stop stop-color="#DC2626"/>
      <stop offset="0.55" stop-color="#991B1B"/>
      <stop offset="1" stop-color="#B91C1C"/>
    </linearGradient>
    <linearGradient id="giCenter" x1="602" y1="574" x2="602" y2="980" gradientUnits="userSpaceOnUse">
      <stop stop-color="#7F1D1D"/>
      <stop offset="1" stop-color="#5F0F19"/>
    </linearGradient>
    <linearGradient id="pants" x1="454" y1="980" x2="750" y2="1136" gradientUnits="userSpaceOnUse">
      <stop stop-color="#B91C1C"/>
      <stop offset="0.5" stop-color="#650819"/>
      <stop offset="1" stop-color="#991B1B"/>
    </linearGradient>
  </defs>
</svg>
