<svg width="1200" height="1380" viewBox="0 0 1200 1380" fill="none" xmlns="http://www.w3.org/2000/svg">
  <rect width="1200" height="1380" fill="#020617"/>
  <rect width="1200" height="1380" fill="url(#paint0_radial)"/>
  <rect x="72" y="60" width="1056" height="1260" rx="52" fill="#0F172A" fill-opacity="0.68" stroke="#334155"/>
  <rect x="128" y="118" width="944" height="1144" rx="36" fill="url(#paint1_linear)"/>
  <circle cx="914" cy="262" r="148" fill="#EF4444" fill-opacity="0.22"/>
  <circle cx="288" cy="1080" r="180" fill="#FACC15" fill-opacity="0.12"/>
  <path d="M376 1011C434 846 536 737 618 689C703 639 834 612 893 510C912 620 907 711 852 806C784 924 667 1008 376 1011Z" fill="#111827"/>
  <path d="M657 334C744 334 813 405 813 492V593H500V492C500 405 570 334 657 334Z" fill="#111827"/>
  <path d="M555 315C555 257 600 210 657 210C713 210 759 257 759 315C759 372 713 418 657 418C600 418 555 372 555 315Z" fill="#1E293B"/>
  <path d="M468 611H838L894 1016H413L468 611Z" fill="#DC2626"/>
  <path d="M599 611H707L729 1016H577L599 611Z" fill="#991B1B"/>
  <path d="M450 631L352 824" stroke="#F8FAFC" stroke-width="36" stroke-linecap="round"/>
  <path d="M856 631L945 837" stroke="#F8FAFC" stroke-width="36" stroke-linecap="round"/>
  <path d="M543 1001L475 1191" stroke="#F8FAFC" stroke-width="42" stroke-linecap="round"/>
  <path d="M773 1001L846 1191" stroke="#F8FAFC" stroke-width="42" stroke-linecap="round"/>
  <rect x="347" y="774" width="615" height="92" rx="24" fill="#111827"/>
  <text x="160" y="171" fill="#F8FAFC" font-family="Manrope, Arial, sans-serif" font-size="54" font-weight="800">Elite Training. Real Discipline.</text>
  <text x="160" y="226" fill="#FCA5A5" font-family="Manrope, Arial, sans-serif" font-size="28" font-weight="700">Powerful visual placeholder for hero imagery</text>
  <defs>
    <radialGradient id="paint0_radial" cx="0" cy="0" r="1" gradientUnits="userSpaceOnUse" gradientTransform="translate(600 0) rotate(90) scale(1420 949.507)">
      <stop stop-color="#7F1D1D"/>
      <stop offset="1" stop-color="#020617" stop-opacity="0"/>
    </radialGradient>
    <linearGradient id="paint1_linear" x1="600" y1="118" x2="600" y2="1262" gradientUnits="userSpaceOnUse">
      <stop stop-color="#1E293B"/>
      <stop offset="1" stop-color="#020617"/>
    </linearGradient>
  </defs>
</svg>
